<mxfile host="app.diagrams.net" modified="2023-12-20T12:29:32.507Z" agent="Mozilla/5.0 (Windows NT 10.0; Win64; x64) AppleWebKit/537.36 (KHTML, like Gecko) Chrome/120.0.0.0 Safari/537.36" etag="5usfVxZEjYrYYWiWZIGG" version="22.1.11" type="device">
  <diagram name="Page-1" id="4Mu8Mg3gbt0rlG3FnBVU">
    <mxGraphModel dx="2008" dy="2333" grid="1" gridSize="10" guides="1" tooltips="1" connect="1" arrows="1" fold="1" page="1" pageScale="1" pageWidth="850" pageHeight="1100" math="0" shadow="0">
      <root>
        <mxCell id="0" />
        <mxCell id="1" parent="0" />
        <mxCell id="e2d-h4iOLmfBkgxcTGnJ-6" style="edgeStyle=orthogonalEdgeStyle;rounded=0;orthogonalLoop=1;jettySize=auto;html=1;entryX=0;entryY=0.5;entryDx=0;entryDy=0;" edge="1" parent="1" source="e2d-h4iOLmfBkgxcTGnJ-1" target="e2d-h4iOLmfBkgxcTGnJ-4">
          <mxGeometry relative="1" as="geometry" />
        </mxCell>
        <mxCell id="e2d-h4iOLmfBkgxcTGnJ-7" style="edgeStyle=orthogonalEdgeStyle;rounded=0;orthogonalLoop=1;jettySize=auto;html=1;entryX=0.5;entryY=1;entryDx=0;entryDy=0;" edge="1" parent="1" source="e2d-h4iOLmfBkgxcTGnJ-1" target="e2d-h4iOLmfBkgxcTGnJ-2">
          <mxGeometry relative="1" as="geometry" />
        </mxCell>
        <mxCell id="e2d-h4iOLmfBkgxcTGnJ-8" style="edgeStyle=orthogonalEdgeStyle;rounded=0;orthogonalLoop=1;jettySize=auto;html=1;entryX=1;entryY=0.5;entryDx=0;entryDy=0;" edge="1" parent="1" source="e2d-h4iOLmfBkgxcTGnJ-1" target="e2d-h4iOLmfBkgxcTGnJ-3">
          <mxGeometry relative="1" as="geometry" />
        </mxCell>
        <mxCell id="e2d-h4iOLmfBkgxcTGnJ-9" style="edgeStyle=orthogonalEdgeStyle;rounded=0;orthogonalLoop=1;jettySize=auto;html=1;entryX=0.5;entryY=0;entryDx=0;entryDy=0;" edge="1" parent="1" source="e2d-h4iOLmfBkgxcTGnJ-1" target="e2d-h4iOLmfBkgxcTGnJ-5">
          <mxGeometry relative="1" as="geometry" />
        </mxCell>
        <mxCell id="e2d-h4iOLmfBkgxcTGnJ-1" value="Mechanical Engineering&amp;nbsp;" style="rounded=1;whiteSpace=wrap;html=1;fillColor=#FFCCE6;" vertex="1" parent="1">
          <mxGeometry x="365" y="280" width="120" height="60" as="geometry" />
        </mxCell>
        <mxCell id="e2d-h4iOLmfBkgxcTGnJ-2" value="Knowladge Discovery" style="rounded=1;whiteSpace=wrap;html=1;fillColor=#FFE599;" vertex="1" parent="1">
          <mxGeometry x="365" y="120" width="120" height="60" as="geometry" />
        </mxCell>
        <mxCell id="e2d-h4iOLmfBkgxcTGnJ-3" value="Quality Control" style="rounded=1;whiteSpace=wrap;html=1;fillColor=#FF6666;" vertex="1" parent="1">
          <mxGeometry x="130" y="280" width="120" height="60" as="geometry" />
        </mxCell>
        <mxCell id="e2d-h4iOLmfBkgxcTGnJ-4" value="Engineering Design" style="rounded=1;whiteSpace=wrap;html=1;fillColor=#2EB2FF;" vertex="1" parent="1">
          <mxGeometry x="600" y="280" width="120" height="60" as="geometry" />
        </mxCell>
        <mxCell id="e2d-h4iOLmfBkgxcTGnJ-5" value="Education and Traning" style="rounded=1;whiteSpace=wrap;html=1;fillColor=#B9E0A5;" vertex="1" parent="1">
          <mxGeometry x="365" y="440" width="120" height="60" as="geometry" />
        </mxCell>
        <mxCell id="e2d-h4iOLmfBkgxcTGnJ-10" value="Data integration" style="rounded=1;whiteSpace=wrap;html=1;fillColor=#FFE599;" vertex="1" parent="1">
          <mxGeometry x="40" y="-20" width="110" height="50" as="geometry" />
        </mxCell>
        <mxCell id="e2d-h4iOLmfBkgxcTGnJ-11" value="Data aggregation" style="rounded=1;whiteSpace=wrap;html=1;fillColor=#FFE599;" vertex="1" parent="1">
          <mxGeometry x="200" y="-20" width="110" height="50" as="geometry" />
        </mxCell>
        <mxCell id="e2d-h4iOLmfBkgxcTGnJ-12" value="Semantic search" style="rounded=1;whiteSpace=wrap;html=1;fillColor=#FFE599;" vertex="1" parent="1">
          <mxGeometry x="370" y="-20" width="110" height="50" as="geometry" />
        </mxCell>
        <mxCell id="e2d-h4iOLmfBkgxcTGnJ-13" value="Trend Analysis" style="rounded=1;whiteSpace=wrap;html=1;fillColor=#FFE599;" vertex="1" parent="1">
          <mxGeometry x="540" y="-20" width="110" height="50" as="geometry" />
        </mxCell>
        <mxCell id="e2d-h4iOLmfBkgxcTGnJ-14" value="Knowledge Representation" style="rounded=1;whiteSpace=wrap;html=1;fillColor=#FFE599;" vertex="1" parent="1">
          <mxGeometry x="700" y="-20" width="110" height="50" as="geometry" />
        </mxCell>
        <mxCell id="e2d-h4iOLmfBkgxcTGnJ-15" value="" style="endArrow=none;html=1;rounded=0;entryX=0.5;entryY=1;entryDx=0;entryDy=0;" edge="1" parent="1" target="e2d-h4iOLmfBkgxcTGnJ-10">
          <mxGeometry width="50" height="50" relative="1" as="geometry">
            <mxPoint x="425" y="120" as="sourcePoint" />
            <mxPoint x="450" y="190" as="targetPoint" />
            <Array as="points">
              <mxPoint x="425" y="100" />
              <mxPoint x="95" y="100" />
            </Array>
          </mxGeometry>
        </mxCell>
        <mxCell id="e2d-h4iOLmfBkgxcTGnJ-16" value="" style="endArrow=none;html=1;rounded=0;exitX=0.5;exitY=1;exitDx=0;exitDy=0;" edge="1" parent="1" source="e2d-h4iOLmfBkgxcTGnJ-11">
          <mxGeometry width="50" height="50" relative="1" as="geometry">
            <mxPoint x="400" y="240" as="sourcePoint" />
            <mxPoint x="255" y="100" as="targetPoint" />
          </mxGeometry>
        </mxCell>
        <mxCell id="e2d-h4iOLmfBkgxcTGnJ-17" value="" style="endArrow=none;html=1;rounded=0;" edge="1" parent="1">
          <mxGeometry width="50" height="50" relative="1" as="geometry">
            <mxPoint x="760" y="100" as="sourcePoint" />
            <mxPoint x="420" y="100" as="targetPoint" />
          </mxGeometry>
        </mxCell>
        <mxCell id="e2d-h4iOLmfBkgxcTGnJ-18" value="" style="endArrow=none;html=1;rounded=0;entryX=0.5;entryY=1;entryDx=0;entryDy=0;" edge="1" parent="1" target="e2d-h4iOLmfBkgxcTGnJ-13">
          <mxGeometry width="50" height="50" relative="1" as="geometry">
            <mxPoint x="595" y="100" as="sourcePoint" />
            <mxPoint x="450" y="190" as="targetPoint" />
          </mxGeometry>
        </mxCell>
        <mxCell id="e2d-h4iOLmfBkgxcTGnJ-19" value="" style="endArrow=none;html=1;rounded=0;entryX=0.5;entryY=1;entryDx=0;entryDy=0;" edge="1" parent="1">
          <mxGeometry width="50" height="50" relative="1" as="geometry">
            <mxPoint x="755" y="100" as="sourcePoint" />
            <mxPoint x="755" y="30" as="targetPoint" />
          </mxGeometry>
        </mxCell>
        <mxCell id="e2d-h4iOLmfBkgxcTGnJ-20" value="" style="endArrow=none;html=1;rounded=0;entryX=0.5;entryY=1;entryDx=0;entryDy=0;" edge="1" parent="1" target="e2d-h4iOLmfBkgxcTGnJ-12">
          <mxGeometry width="50" height="50" relative="1" as="geometry">
            <mxPoint x="425" y="100" as="sourcePoint" />
            <mxPoint x="450" y="190" as="targetPoint" />
          </mxGeometry>
        </mxCell>
        <mxCell id="e2d-h4iOLmfBkgxcTGnJ-53" value="" style="endArrow=none;html=1;rounded=0;" edge="1" parent="1">
          <mxGeometry width="50" height="50" relative="1" as="geometry">
            <mxPoint x="130" y="310" as="sourcePoint" />
            <mxPoint x="60" y="310" as="targetPoint" />
          </mxGeometry>
        </mxCell>
        <mxCell id="e2d-h4iOLmfBkgxcTGnJ-55" value="Quality Metrics" style="rounded=1;whiteSpace=wrap;html=1;fillColor=#FF6666;" vertex="1" parent="1">
          <mxGeometry x="-110" y="120" width="110" height="50" as="geometry" />
        </mxCell>
        <mxCell id="e2d-h4iOLmfBkgxcTGnJ-56" value="Parameter Tracking" style="rounded=1;whiteSpace=wrap;html=1;fillColor=#FF6666;" vertex="1" parent="1">
          <mxGeometry x="-110" y="200" width="110" height="50" as="geometry" />
        </mxCell>
        <mxCell id="e2d-h4iOLmfBkgxcTGnJ-57" value="Customer feedback" style="rounded=1;whiteSpace=wrap;html=1;fillColor=#FF6666;" vertex="1" parent="1">
          <mxGeometry x="-110" y="285" width="110" height="50" as="geometry" />
        </mxCell>
        <mxCell id="e2d-h4iOLmfBkgxcTGnJ-58" value="Satisfaction Monitoring" style="rounded=1;whiteSpace=wrap;html=1;fillColor=#FF6666;" vertex="1" parent="1">
          <mxGeometry x="-110" y="360" width="110" height="60" as="geometry" />
        </mxCell>
        <mxCell id="e2d-h4iOLmfBkgxcTGnJ-59" value="Quality Assurance&amp;nbsp;" style="rounded=1;whiteSpace=wrap;html=1;fillColor=#FF6666;" vertex="1" parent="1">
          <mxGeometry x="-110" y="445" width="110" height="50" as="geometry" />
        </mxCell>
        <mxCell id="e2d-h4iOLmfBkgxcTGnJ-60" value="" style="endArrow=none;html=1;rounded=0;" edge="1" parent="1">
          <mxGeometry width="50" height="50" relative="1" as="geometry">
            <mxPoint x="60" y="470" as="sourcePoint" />
            <mxPoint x="60" y="140" as="targetPoint" />
          </mxGeometry>
        </mxCell>
        <mxCell id="e2d-h4iOLmfBkgxcTGnJ-61" value="" style="endArrow=none;html=1;rounded=0;exitX=1;exitY=0.5;exitDx=0;exitDy=0;" edge="1" parent="1" source="e2d-h4iOLmfBkgxcTGnJ-57">
          <mxGeometry width="50" height="50" relative="1" as="geometry">
            <mxPoint x="460" y="420" as="sourcePoint" />
            <mxPoint x="60" y="310" as="targetPoint" />
          </mxGeometry>
        </mxCell>
        <mxCell id="e2d-h4iOLmfBkgxcTGnJ-62" value="" style="endArrow=none;html=1;rounded=0;entryX=1;entryY=0.5;entryDx=0;entryDy=0;" edge="1" parent="1" target="e2d-h4iOLmfBkgxcTGnJ-56">
          <mxGeometry width="50" height="50" relative="1" as="geometry">
            <mxPoint x="60" y="225" as="sourcePoint" />
            <mxPoint x="510" y="370" as="targetPoint" />
          </mxGeometry>
        </mxCell>
        <mxCell id="e2d-h4iOLmfBkgxcTGnJ-63" value="" style="endArrow=none;html=1;rounded=0;exitX=1;exitY=0.5;exitDx=0;exitDy=0;" edge="1" parent="1" source="e2d-h4iOLmfBkgxcTGnJ-55">
          <mxGeometry width="50" height="50" relative="1" as="geometry">
            <mxPoint x="460" y="420" as="sourcePoint" />
            <mxPoint x="60" y="145" as="targetPoint" />
          </mxGeometry>
        </mxCell>
        <mxCell id="e2d-h4iOLmfBkgxcTGnJ-64" value="" style="endArrow=none;html=1;rounded=0;entryX=1;entryY=0.5;entryDx=0;entryDy=0;" edge="1" parent="1" target="e2d-h4iOLmfBkgxcTGnJ-58">
          <mxGeometry width="50" height="50" relative="1" as="geometry">
            <mxPoint x="60" y="390" as="sourcePoint" />
            <mxPoint x="510" y="370" as="targetPoint" />
          </mxGeometry>
        </mxCell>
        <mxCell id="e2d-h4iOLmfBkgxcTGnJ-65" value="" style="endArrow=none;html=1;rounded=0;exitX=1;exitY=0.5;exitDx=0;exitDy=0;" edge="1" parent="1" source="e2d-h4iOLmfBkgxcTGnJ-59">
          <mxGeometry width="50" height="50" relative="1" as="geometry">
            <mxPoint x="460" y="420" as="sourcePoint" />
            <mxPoint x="60" y="470" as="targetPoint" />
          </mxGeometry>
        </mxCell>
        <mxCell id="e2d-h4iOLmfBkgxcTGnJ-66" value="" style="endArrow=none;html=1;rounded=0;entryX=0.5;entryY=1;entryDx=0;entryDy=0;" edge="1" parent="1" target="e2d-h4iOLmfBkgxcTGnJ-5">
          <mxGeometry width="50" height="50" relative="1" as="geometry">
            <mxPoint x="425" y="560" as="sourcePoint" />
            <mxPoint x="430" y="530" as="targetPoint" />
          </mxGeometry>
        </mxCell>
        <mxCell id="e2d-h4iOLmfBkgxcTGnJ-67" value="" style="endArrow=none;html=1;rounded=0;" edge="1" parent="1">
          <mxGeometry width="50" height="50" relative="1" as="geometry">
            <mxPoint x="130" y="540" as="sourcePoint" />
            <mxPoint x="710" y="540" as="targetPoint" />
          </mxGeometry>
        </mxCell>
        <mxCell id="e2d-h4iOLmfBkgxcTGnJ-68" value="Professional development" style="rounded=1;whiteSpace=wrap;html=1;fillColor=#B9E0A5;" vertex="1" parent="1">
          <mxGeometry x="370" y="610" width="110" height="50" as="geometry" />
        </mxCell>
        <mxCell id="e2d-h4iOLmfBkgxcTGnJ-69" value="Learning Resourses" style="rounded=1;whiteSpace=wrap;html=1;fillColor=#B9E0A5;" vertex="1" parent="1">
          <mxGeometry x="230" y="610" width="110" height="50" as="geometry" />
        </mxCell>
        <mxCell id="e2d-h4iOLmfBkgxcTGnJ-70" value="Curriculum development" style="rounded=1;whiteSpace=wrap;html=1;fillColor=#B9E0A5;" vertex="1" parent="1">
          <mxGeometry x="80" y="610" width="110" height="50" as="geometry" />
        </mxCell>
        <mxCell id="e2d-h4iOLmfBkgxcTGnJ-71" value="Certification&lt;br&gt;programs" style="rounded=1;whiteSpace=wrap;html=1;fillColor=#B9E0A5;" vertex="1" parent="1">
          <mxGeometry x="510" y="610" width="110" height="50" as="geometry" />
        </mxCell>
        <mxCell id="e2d-h4iOLmfBkgxcTGnJ-72" value="Interactive learning platforms" style="rounded=1;whiteSpace=wrap;html=1;fillColor=#B9E0A5;" vertex="1" parent="1">
          <mxGeometry x="650" y="610" width="110" height="50" as="geometry" />
        </mxCell>
        <mxCell id="e2d-h4iOLmfBkgxcTGnJ-73" value="" style="endArrow=none;html=1;rounded=0;entryX=0.5;entryY=0;entryDx=0;entryDy=0;" edge="1" parent="1" target="e2d-h4iOLmfBkgxcTGnJ-72">
          <mxGeometry width="50" height="50" relative="1" as="geometry">
            <mxPoint x="705" y="540" as="sourcePoint" />
            <mxPoint x="210" y="410" as="targetPoint" />
          </mxGeometry>
        </mxCell>
        <mxCell id="e2d-h4iOLmfBkgxcTGnJ-74" value="" style="endArrow=none;html=1;rounded=0;exitX=0.5;exitY=0;exitDx=0;exitDy=0;" edge="1" parent="1" source="e2d-h4iOLmfBkgxcTGnJ-71">
          <mxGeometry width="50" height="50" relative="1" as="geometry">
            <mxPoint x="160" y="460" as="sourcePoint" />
            <mxPoint x="565" y="540" as="targetPoint" />
          </mxGeometry>
        </mxCell>
        <mxCell id="e2d-h4iOLmfBkgxcTGnJ-75" value="" style="endArrow=none;html=1;rounded=0;exitX=0.5;exitY=0;exitDx=0;exitDy=0;" edge="1" parent="1" source="e2d-h4iOLmfBkgxcTGnJ-68">
          <mxGeometry width="50" height="50" relative="1" as="geometry">
            <mxPoint x="430" y="540" as="sourcePoint" />
            <mxPoint x="425" y="540" as="targetPoint" />
          </mxGeometry>
        </mxCell>
        <mxCell id="e2d-h4iOLmfBkgxcTGnJ-76" value="" style="endArrow=none;html=1;rounded=0;exitX=0.5;exitY=0;exitDx=0;exitDy=0;" edge="1" parent="1" source="e2d-h4iOLmfBkgxcTGnJ-69">
          <mxGeometry width="50" height="50" relative="1" as="geometry">
            <mxPoint x="160" y="460" as="sourcePoint" />
            <mxPoint x="285" y="540" as="targetPoint" />
          </mxGeometry>
        </mxCell>
        <mxCell id="e2d-h4iOLmfBkgxcTGnJ-77" value="" style="endArrow=none;html=1;rounded=0;exitX=0.5;exitY=0;exitDx=0;exitDy=0;" edge="1" parent="1" source="e2d-h4iOLmfBkgxcTGnJ-70">
          <mxGeometry width="50" height="50" relative="1" as="geometry">
            <mxPoint x="160" y="460" as="sourcePoint" />
            <mxPoint x="135" y="540" as="targetPoint" />
          </mxGeometry>
        </mxCell>
        <mxCell id="e2d-h4iOLmfBkgxcTGnJ-78" value="" style="endArrow=none;html=1;rounded=0;entryX=1;entryY=0.5;entryDx=0;entryDy=0;" edge="1" parent="1" target="e2d-h4iOLmfBkgxcTGnJ-4">
          <mxGeometry width="50" height="50" relative="1" as="geometry">
            <mxPoint x="870" y="310" as="sourcePoint" />
            <mxPoint x="450" y="310" as="targetPoint" />
          </mxGeometry>
        </mxCell>
        <mxCell id="e2d-h4iOLmfBkgxcTGnJ-79" value="" style="endArrow=none;html=1;rounded=0;" edge="1" parent="1">
          <mxGeometry width="50" height="50" relative="1" as="geometry">
            <mxPoint x="810" y="520" as="sourcePoint" />
            <mxPoint x="810" y="110" as="targetPoint" />
          </mxGeometry>
        </mxCell>
        <mxCell id="e2d-h4iOLmfBkgxcTGnJ-80" value="Meterial Selection" style="rounded=1;whiteSpace=wrap;html=1;fillColor=#2EB2FF;" vertex="1" parent="1">
          <mxGeometry x="880" y="285" width="110" height="50" as="geometry" />
        </mxCell>
        <mxCell id="e2d-h4iOLmfBkgxcTGnJ-81" value="" style="endArrow=none;html=1;rounded=0;entryX=0;entryY=0.5;entryDx=0;entryDy=0;" edge="1" parent="1" target="e2d-h4iOLmfBkgxcTGnJ-80">
          <mxGeometry width="50" height="50" relative="1" as="geometry">
            <mxPoint x="810" y="310" as="sourcePoint" />
            <mxPoint x="650" y="350" as="targetPoint" />
          </mxGeometry>
        </mxCell>
        <mxCell id="e2d-h4iOLmfBkgxcTGnJ-82" value="Requirment Analysis" style="rounded=1;whiteSpace=wrap;html=1;fillColor=#2EB2FF;" vertex="1" parent="1">
          <mxGeometry x="880" y="190" width="110" height="50" as="geometry" />
        </mxCell>
        <mxCell id="e2d-h4iOLmfBkgxcTGnJ-84" value="Conceptualization" style="rounded=1;whiteSpace=wrap;html=1;fillColor=#2EB2FF;" vertex="1" parent="1">
          <mxGeometry x="880" y="90" width="110" height="50" as="geometry" />
        </mxCell>
        <mxCell id="e2d-h4iOLmfBkgxcTGnJ-85" value="Manufacturing Processes" style="rounded=1;whiteSpace=wrap;html=1;fillColor=#2EB2FF;" vertex="1" parent="1">
          <mxGeometry x="880" y="390" width="110" height="50" as="geometry" />
        </mxCell>
        <mxCell id="e2d-h4iOLmfBkgxcTGnJ-86" value="Documentation" style="rounded=1;whiteSpace=wrap;html=1;fillColor=#2EB2FF;" vertex="1" parent="1">
          <mxGeometry x="880" y="480" width="110" height="50" as="geometry" />
        </mxCell>
        <mxCell id="e2d-h4iOLmfBkgxcTGnJ-87" value="" style="endArrow=none;html=1;rounded=0;entryX=0;entryY=0.75;entryDx=0;entryDy=0;" edge="1" parent="1" target="e2d-h4iOLmfBkgxcTGnJ-86">
          <mxGeometry width="50" height="50" relative="1" as="geometry">
            <mxPoint x="810" y="518" as="sourcePoint" />
            <mxPoint x="650" y="350" as="targetPoint" />
          </mxGeometry>
        </mxCell>
        <mxCell id="e2d-h4iOLmfBkgxcTGnJ-88" value="" style="endArrow=none;html=1;rounded=0;entryX=0;entryY=0.5;entryDx=0;entryDy=0;" edge="1" parent="1" target="e2d-h4iOLmfBkgxcTGnJ-85">
          <mxGeometry width="50" height="50" relative="1" as="geometry">
            <mxPoint x="810" y="415" as="sourcePoint" />
            <mxPoint x="650" y="350" as="targetPoint" />
          </mxGeometry>
        </mxCell>
        <mxCell id="e2d-h4iOLmfBkgxcTGnJ-89" value="" style="endArrow=none;html=1;rounded=0;entryX=0;entryY=0.5;entryDx=0;entryDy=0;" edge="1" parent="1" target="e2d-h4iOLmfBkgxcTGnJ-82">
          <mxGeometry width="50" height="50" relative="1" as="geometry">
            <mxPoint x="810" y="215" as="sourcePoint" />
            <mxPoint x="650" y="350" as="targetPoint" />
          </mxGeometry>
        </mxCell>
        <mxCell id="e2d-h4iOLmfBkgxcTGnJ-90" value="" style="endArrow=none;html=1;rounded=0;entryX=0;entryY=0.5;entryDx=0;entryDy=0;" edge="1" parent="1" target="e2d-h4iOLmfBkgxcTGnJ-84">
          <mxGeometry width="50" height="50" relative="1" as="geometry">
            <mxPoint x="810" y="115" as="sourcePoint" />
            <mxPoint x="650" y="350" as="targetPoint" />
          </mxGeometry>
        </mxCell>
      </root>
    </mxGraphModel>
  </diagram>
</mxfile>
